<svg xmlns="http://www.w3.org/2000/svg" xmlns:xlink="http://www.w3.org/1999/xlink" version="1.1" x="0px" y="0px" viewBox="0 0 512 640" enable-background="new 0 0 512 512" xml:space="preserve"><g><path d="M464.5,9.4c-9.9-9.9-26-9.9-35.9,0l-32,32C360,16.7,316.1,2,268.7,2C142.4,2,40.1,104.3,40.1,230.6   c0,47.4,14.7,91.3,39.6,127.7l-57.5,57.5c-9.9,9.9-9.9,26,0,35.9c16.4,16.4,31,5,35.9,0L464.5,45.4   C474.4,35.4,474.4,19.4,464.5,9.4z M167.1,230.6c0-56,45.6-101.6,101.6-101.6c12,0,23.2,2.7,33.8,6.5l-45.9,45.9   c-18.2,4.5-32.5,18.8-37,37l-45.9,45.9C169.8,253.8,167.1,242.6,167.1,230.6z"/><path d="M413,407.8c51.4-41.9,84.3-105.7,84.3-177.2c0-42-11.5-81.2-31.3-115.1L368.5,213c1,5.7,1.8,11.6,1.8,17.6   c0,56-45.6,101.6-101.6,101.6c-6,0-11.9-0.8-17.6-1.8L95.2,486.3l-3.8,10.2C89.1,503.1,94,510,101,510h335.8c7,0,11.9-6.9,9.6-13.5   L413,407.8z"/></g></svg>